<?xml version="1.0" encoding="UTF-8"?>
<svg version="1.2" baseProfile="tiny-ps" id="cognni" data-name="cognni" xmlns="http://www.w3.org/2000/svg" viewBox="0 0 539.37 539.37">
  <title>Cognni</title>
  <defs>
    <style>
      .cls-1 {
        fill: #1d1d1b;
      }

      .cls-2 {
        fill: #fff;
      }
    </style>
  </defs>
  <g id="Backgrounds">
    <rect class="cls-1" width="539.37" height="539.37"/>
  </g>
  <g id="Logo">
    <g>
      <path class="cls-2" d="M257.43,248.78c-3.66-1.98-8.37-2.98-14.13-2.98-10.47,0-19.14,3.75-25.99,11.23-6.86,7.49-10.29,16.47-10.29,26.94s3.46,19.95,10.37,27.18c6.91,7.22,15.55,10.83,25.92,10.83s17.02-2.93,20.89-8.79v3.61c0,13.3-6.44,19.95-19.32,19.95l1.1,20.73c13.82,0,24.24-3.96,31.25-11.86,7.01-7.91,10.53-17.94,10.53-30.08v-68.33l-22.77,8.33c-1.37-2.52-3.88-4.77-7.55-6.76ZM259.71,296.54c-3.09,3.14-7.09,4.71-12.01,4.71s-8.96-1.57-12.1-4.71c-3.14-3.14-4.71-7.33-4.71-12.57s1.65-9.3,4.95-12.49c3.3-3.19,7.25-4.79,11.86-4.79s8.53,1.6,11.78,4.79c3.24,3.2,4.86,7.36,4.86,12.49s-1.54,9.43-4.63,12.57Z"/>
      <path class="cls-2" d="M342.74,245.17c-4.29,0-8.51.97-12.65,2.91-4.14,1.94-7.2,4.63-9.19,8.09v.14l-23.09-9.09v80.42h23.88v-47.12c0-3.98,1.18-7.25,3.53-9.82,2.36-2.56,5.47-3.85,9.35-3.85,4.19,0,7.36,1.23,9.5,3.69,2.15,2.47,3.22,5.73,3.22,9.82v44.92h23.88v-49.01c0-9.11-2.41-16.57-7.22-22.38-4.81-5.81-11.89-8.72-21.21-8.72Z"/>
      <polygon class="cls-2" points="464.67 325.23 488.55 325.23 488.55 247.27 464.67 256.3 464.67 325.23"/>
      <path class="cls-2" d="M426.92,245.17c-4.29,0-8.51.97-12.65,2.91-4.14,1.94-7.2,4.63-9.19,8.09v.14l-23.09-9.09v78.02h23.88v-44.71c0-3.98,1.18-7.25,3.53-9.82,2.36-2.56,5.48-3.85,9.35-3.85,4.19,0,7.36,1.23,9.5,3.69,2.14,2.47,3.22,5.73,3.22,9.82v44.92h23.88v-49.01c0-9.11-2.41-16.57-7.22-22.38-4.81-5.81-11.89-8.72-21.21-8.72Z"/>
      <path class="cls-2" d="M158.68,244.86c-11.73,0-21.58,3.9-29.53,11.7-7.96,7.8-11.93,17.67-11.93,29.61s3.98,21.83,11.93,29.69c7.96,7.86,17.8,11.78,29.53,11.78s21.7-3.9,29.61-11.7c7.91-7.8,11.86-17.72,11.86-29.77s-3.95-21.94-11.86-29.69c-7.91-7.75-17.78-11.63-29.61-11.63ZM171.17,300.62c-3.4,3.35-7.57,5.03-12.48,5.03s-8.95-1.7-12.41-5.11c-3.46-3.4-5.18-8.19-5.18-14.37s1.73-10.94,5.18-14.3c3.46-3.35,7.59-5.02,12.41-5.02s9.09,1.64,12.48,4.95c3.41,3.3,5.11,8.09,5.11,14.37s-1.7,11.1-5.11,14.45Z"/>
      <path class="cls-2" d="M85.56,302.27c-2.77,2.26-6.31,3.38-10.6,3.38-5.14,0-9.45-1.73-12.96-5.19-3.51-3.46-5.26-8.16-5.26-14.13s1.7-10.84,5.1-14.3c3.41-3.46,7.67-5.18,12.81-5.18,4.29,0,7.75,1.1,10.37,3.3,2.62,2.19,4.4,4.97,5.34,8.33l21.36-6.44c-1.88-7.64-6.08-14.08-12.57-19.32-6.49-5.24-14.82-7.86-24.98-7.86-11.62,0-21.39,3.91-29.3,11.71-7.91,7.8-11.86,17.72-11.86,29.77s4.05,21.81,12.17,29.61c8.12,7.8,18.04,11.7,29.77,11.7,9.84,0,18.04-2.67,24.59-8.01,6.54-5.34,10.76-11.73,12.64-19.17l-21.05-6.44c-.94,3.25-2.8,5.99-5.57,8.24Z"/>
      <path class="cls-2" d="M158.53,237.32c3.87,0,7.2-1.36,9.98-4.08,2.77-2.72,4.16-6.02,4.16-9.89s-1.39-7.18-4.16-9.9c-2.78-2.72-6.1-4.08-9.98-4.08s-7.01,1.36-9.74,4.08c-2.72,2.72-4.08,6.03-4.08,9.9s1.36,7.17,4.08,9.89c2.72,2.72,5.97,4.08,9.74,4.08Z"/>
    </g>
  </g>
</svg>